<svg xmlns="http://www.w3.org/2000/svg" xmlns:xlink="http://www.w3.org/1999/xlink" width="0" height="0" aria-hidden="true" focusable="false">
  <symbol id="ia-upload-icon" viewBox="0 0 20 20" fill="none">
    <path fill="currentColor" d="M13.854 10.824 10.851 7.826a.625.625 0 0 0-.88 0L6.793 10.824a.625.625 0 1 0 .884.884L9.576 10.162v8.184a.625.625 0 1 0 1.25 0v-8.184l1.722 1.546a.625.625 0 1 0 .884-.884Z"/>
    <path fill="currentColor" d="M19.739 11.668c0 1.158-.451 2.246-1.269 3.064A4.406 4.406 0 0 1 15.406 16h-.657a.625.625 0 1 1 0-1.25h.657c.757 0 1.468-.294 2.003-.83.536-.535.83-1.246.83-2.003 0-.728-.277-1.418-.78-1.942-.5-.524-1.176-.834-1.902-.873a.625.625 0 0 1-1.122-.376 3.1 3.1 0 0 0-.277-1.039 4.125 4.125 0 0 0-3.378-3.138 4.125 4.125 0 0 0-4.203 2.88.625.625 0 0 1-1.175-.026 5.375 5.375 0 0 0-4.516-3.662A5.375 5.375 0 0 0 2.266 12.548c0 .922.359 1.789 1.011 2.441A3.375 3.375 0 0 0 5.817 16h2.1a.625.625 0 1 1 0 1.25h-2.1A4.625 4.625 0 0 1 1.277 14.99 5.375 5.375 0 0 1 2.207 10.187a6.625 6.625 0 0 1 2.382-1.89 6.125 6.125 0 0 1 1.182-4.694A5.375 5.375 0 0 1 11.978 1.384c1.294 0 2.51.504 3.425 1.419.915.915 1.419 2.132 1.419 3.426 0 .394-.051.789-.152 1.172.691.212 1.348.609 1.878 1.162.771.805 1.196 1.863 1.196 2.98Z"/>
  </symbol>
  <symbol id="ia-download-icon" viewBox="0 0 20 20" fill="none">
    <path fill="currentColor" d="M13.854 9.176 10.851 12.174a.625.625 0 0 1-.88 0L6.793 9.176a.625.625 0 1 1 .884-.884L9.576 9.838V1.654a.625.625 0 1 1 1.25 0v8.184l1.722-1.546a.625.625 0 1 1 .884.884Z"/>
    <path fill="currentColor" d="M19.739 11.668c0 1.158-.451 2.246-1.269 3.064A4.406 4.406 0 0 1 15.406 16h-.657a.625.625 0 1 1 0-1.25h.657c.757 0 1.468-.294 2.003-.83.536-.535.83-1.246.83-2.003 0-.728-.277-1.418-.78-1.942-.5-.524-1.176-.834-1.902-.873a.625.625 0 0 1-1.122-.376 3.1 3.1 0 0 0-.277-1.039 4.125 4.125 0 0 0-3.378-3.138 4.125 4.125 0 0 0-4.203 2.88.625.625 0 0 1-1.175-.026 5.375 5.375 0 0 0-4.516-3.662A5.375 5.375 0 0 0 2.266 12.548c0 .922.359 1.789 1.011 2.441A3.375 3.375 0 0 0 5.817 16h2.1a.625.625 0 1 1 0 1.25h-2.1A4.625 4.625 0 0 1 1.277 14.99 5.375 5.375 0 0 1 2.207 10.187a6.625 6.625 0 0 1 2.382-1.89 6.125 6.125 0 0 1 1.182-4.694A5.375 5.375 0 0 1 11.978 1.384c1.294 0 2.51.504 3.425 1.419.915.915 1.419 2.132 1.419 3.426 0 .394-.051.789-.152 1.172.691.212 1.348.609 1.878 1.162.771.805 1.196 1.863 1.196 2.98Z"/>
  </symbol>
  <symbol id="ia-arrow-icon" viewBox="0 0 24 24" fill="none">
    <circle cx="12" cy="12" r="11" stroke="currentColor" stroke-width="2"/>
    <path d="M7 12H17M13 8L17 12L13 16" stroke="currentColor" stroke-width="2" stroke-linecap="round" stroke-linejoin="round"/>
  </symbol>
  <symbol id="ia-arrow-icon-hover" viewBox="0 0 24 24" fill="none">
    <circle cx="12" cy="12" r="11" fill="#fff" stroke="#fff" stroke-width="2"/>
    <path d="M7 12H17M13 8L17 12L13 16" stroke="#000" stroke-width="2" stroke-linecap="round" stroke-linejoin="round"/>
  </symbol>
</svg>
